# xmcd
#
# Track frame offsets:
#	150
#	11554
#	23211
#	35574
#	44696
#	60592
#	73663
#	84711
#	100333
#	112178
#	126529
#	136340
#	142897
#	159914
#	171836
#
# Disc length: 2417 seconds
#
# Revision: 1
# Processed by: cddbd v1.5.2PL0 Copyright (c) Steve Scherf et al.
# Submitted via: audiograbber 1.83.01
#
DISCID=d6096f0f
DTITLE=Theatergroep Plug-In - Tussen Friet en Staal
DYEAR=2005
DGENRE=Cabareth
TTITLE0=Theatergroep Plug-In - Misschien wordt het morgen beter
TTITLE1=Theatergroep Plug-In - Felicia
TTITLE2=Theatergroep Plug-In - Waar ga je heen
TTITLE3=Theatergroep Plug-In - De dolfijnen
TTITLE4=Theatergroep Plug-In - De Haan en de Hen
TTITLE5=Theatergroep Plug-In - Rietzeilerblues
TTITLE6=Theatergroep Plug-In - Daarom noem ik jou mijn liefste in een lied
TTITLE7=Theatergroep Plug-In - Sommarkort
TTITLE8=Theatergroep Plug-In - Bakker de Baksteen
TTITLE9=Theatergroep Plug-In - Kappucijnersamba
TTITLE10=Theatergroep Plug-In - Het laatste sprookje
TTITLE11=Theatergroep Plug-In - Thuishavensamba
TTITLE12=Theatergroep Plug-In - Tussen friet en staal
TTITLE13=Theatergroep Plug-In - Veronica
TTITLE14=Theatergroep Plug-In - Domelablues
EXTD=
EXTT0=
EXTT1=
EXTT2=
EXTT3=
EXTT4=
EXTT5=
EXTT6=
EXTT7=
EXTT8=
EXTT9=
EXTT10=
EXTT11=
EXTT12=
EXTT13=
EXTT14=
PLAYORDER=
